<!DOCTYPE svg PUBLIC "-//W3C//DTD SVG 1.1//EN" "http://www.w3.org/Graphics/SVG/1.1/DTD/svg11.dtd">
<!-- Uploaded to: SVG Repo, www.svgrepo.com, Transformed by: SVG Repo Mixer Tools -->
<svg width="800px" height="800px" viewBox="0 0 32 32" data-name="Layer 1" id="Layer_1" xmlns="http://www.w3.org/2000/svg" fill="#68FC7F">
<g id="SVGRepo_bgCarrier" stroke-width="0"/>
<g id="SVGRepo_tracerCarrier" stroke-linecap="round" stroke-linejoin="round"/>
<g id="SVGRepo_iconCarrier">
<defs>
<style>.cls-1{fill:#68FC7F;}</style>
</defs>
<title/>
<path class="cls-1" d="M28,5H4A2,2,0,0,0,2,7V24a2,2,0,0,0,2,2H18v3a1,1,0,0,0,.53.88,1,1,0,0,0,1-.05L22,28.2l2.45,1.63A1,1,0,0,0,26,29V26h2a2,2,0,0,0,2-2V7A2,2,0,0,0,28,5ZM22.59,21.94a3,3,0,1,1,2.35-2.35A3,3,0,0,1,22.59,21.94ZM24,27.13l-1.45-1a1,1,0,0,0-1.1,0l-1.45,1V23.58a5,5,0,0,0,4,0ZM28,24H26V22s0,0,0,0a4.93,4.93,0,0,0,.88-4.1A5,5,0,0,0,17,19a4.93,4.93,0,0,0,1,3s0,0,0,0v2H4V7H28Z"/>
<path class="cls-1" d="M7,12H25a1,1,0,0,0,0-2H7a1,1,0,0,0,0,2Z"/>
<path class="cls-1" d="M7,16h8a1,1,0,0,0,0-2H7a1,1,0,0,0,0,2Z"/>
<path class="cls-1" d="M7,20h8a1,1,0,0,0,0-2H7a1,1,0,0,0,0,2Z"/>
</g>
</svg>