<svg xmlns="http://www.w3.org/2000/svg" viewBox="0 0 405.05 491.43"><defs><style>.cls-1{fill:#68fc7f;}.cls-2{opacity:0.4;}.cls-3{fill:#1d1d1b;}</style></defs><g id="Layer_2" data-name="Layer 2"><g id="Layer_1-2" data-name="Layer 1"><g id="Layer_1-3" data-name="Layer 1"><path class="cls-1" d="M202.58,0C90.79,0,.16,33,.16,73.81v60.56c0,40.77,90.63,73.8,202.42,73.8s202.4-33,202.4-73.8V73.81C405,33,314.36,0,202.58,0Z"/><path class="cls-1" d="M202.58,243.46C95.85,243.46,7.86,213.33.16,175.11c-.36,1.83,0,100,0,100,0,40.78,90.63,73.8,202.42,73.8s202.4-33,202.4-73.8c0,0,.23-98.2-.13-100C397.14,213.33,309.3,243.46,202.58,243.46Z"/><path class="cls-1" d="M404.79,317.61C397.1,355.8,309.3,386,202.58,386S7.84,355.8.14,317.61l0,100c0,40.78,90.63,73.8,202.42,73.8s202.4-33,202.4-73.8Z"/></g><g class="cls-2"><g id="Layer_1-4" data-name="Layer 1"><path class="cls-3" d="M202.58,0C90.79,0,.16,33,.16,73.81v60.56c0,40.77,90.63,73.8,202.42,73.8s202.4-33,202.4-73.8V73.81C405,33,314.36,0,202.58,0Z"/><path class="cls-3" d="M202.58,243.46C95.85,243.46,7.86,213.33.16,175.11c-.36,1.83,0,100,0,100,0,40.78,90.63,73.8,202.42,73.8s202.4-33,202.4-73.8c0,0,.23-98.2-.13-100C397.14,213.33,309.3,243.46,202.58,243.46Z"/><path class="cls-3" d="M404.79,317.61C397.1,355.8,309.3,386,202.58,386S7.84,355.8.14,317.61l0,100c0,40.78,90.63,73.8,202.42,73.8s202.4-33,202.4-73.8Z"/></g></g></g></g></svg>