<svg xmlns="http://www.w3.org/2000/svg" viewBox="0 0 512 449.56"><defs><style>.cls-1{fill:#68fc7f;}</style></defs><g id="Layer_2" data-name="Layer 2"><g id="Layer_1-2" data-name="Layer 1"><path class="cls-1" d="M427.16,0H84.84A84.83,84.83,0,0,0,0,84.84v205a84.83,84.83,0,0,0,84.84,84.83h83.75a18.74,18.74,0,0,1,18.73,18.74h0a18.74,18.74,0,0,1-18.73,18.73h-6.25a18.73,18.73,0,0,0-18.73,18.73h0a18.74,18.74,0,0,0,18.73,18.73H349.66a18.74,18.74,0,0,0,18.73-18.73h0a18.73,18.73,0,0,0-18.73-18.73h-6.25a18.74,18.74,0,0,1-18.73-18.73h0a18.74,18.74,0,0,1,18.73-18.74h83.75A84.83,84.83,0,0,0,512,289.8v-205A84.83,84.83,0,0,0,427.16,0ZM187.32,243.51h0a18.72,18.72,0,0,1-26.49,0l-43-42.95a18.72,18.72,0,0,1,0-26.49l43-42.95a18.74,18.74,0,0,1,26.49,0h0a18.74,18.74,0,0,1,0,26.49l-16.46,16.46a18.72,18.72,0,0,0,0,26.49L187.32,217A18.74,18.74,0,0,1,187.32,243.51Zm50.28,49.95h0a18.72,18.72,0,0,1-18.33-22.59L256.07,96A18.74,18.74,0,0,1,274.4,81.17h0a18.73,18.73,0,0,1,18.33,22.59l-36.8,174.83A18.73,18.73,0,0,1,237.6,293.46ZM324.68,217l16.46-16.46a18.72,18.72,0,0,0,0-26.49l-16.46-16.46a18.74,18.74,0,0,1,0-26.49h0a18.74,18.74,0,0,1,26.49,0l42.95,42.95a18.72,18.72,0,0,1,0,26.49l-42.95,42.95a18.72,18.72,0,0,1-26.49,0h0A18.74,18.74,0,0,1,324.68,217Z"/></g></g></svg>