<svg xmlns="http://www.w3.org/2000/svg" viewBox="0 0 414.25 512"><defs><style>.cls-1{fill:#68fc7f;}.cls-2{opacity:0.4;}</style></defs><g id="Layer_2" data-name="Layer 2"><g id="Layer_1-2" data-name="Layer 1"><path class="cls-1" d="M377.32,276.77c-19.38-22.51-45.06-40.67-75-53.14a9.08,9.08,0,0,1-5.6-8.37V42.46a9.07,9.07,0,0,1,9.07-9.07h9.31a9.07,9.07,0,0,0,9.07-9.07V9.07A9.07,9.07,0,0,0,315.12,0h-216a9.07,9.07,0,0,0-9.07,9.07V24.32a9.07,9.07,0,0,0,9.07,9.07h9.31a9.07,9.07,0,0,1,9.07,9.07v172.8a9.06,9.06,0,0,1-5.6,8.37c-29.92,12.47-55.6,30.63-75,53.14C12.77,304.84,0,337.86,0,372.26c0,55,33.35,106.41,89.22,137.62l1.74,1A9.1,9.1,0,0,0,95.38,512h223.5a9.13,9.13,0,0,0,4.42-1.15l1.73-1c55.87-31.21,89.22-82.65,89.22-137.62C414.25,337.86,401.48,304.84,377.32,276.77Zm-265.13,2.74c-9.41,0-12.63-12.6-4.34-17.05A195.5,195.5,0,0,1,139.41,249l5.25-1.72a9.07,9.07,0,0,0,6.25-8.62V154A9.07,9.07,0,0,1,160,145h23.16a9.07,9.07,0,0,0,9.07-9.07V120.63a9.07,9.07,0,0,0-9.07-9.07H160a9.08,9.08,0,0,1-9.08-9.07V94A9.08,9.08,0,0,1,160,84.93h23.16a9.08,9.08,0,0,0,9.07-9.08V60.61a9.08,9.08,0,0,0-9.07-9.08H160a9.08,9.08,0,0,1-9.08-9.07h0A9.08,9.08,0,0,1,160,33.39h94.3a9.07,9.07,0,0,1,9.07,9.07V238.67a9.07,9.07,0,0,0,6.24,8.62l5.25,1.72a195.5,195.5,0,0,1,31.56,13.45c8.29,4.45,5.07,17.05-4.34,17.05Z"/><g class="cls-2"><path d="M377.32,276.77c-19.38-22.51-45.06-40.67-75-53.14a9.08,9.08,0,0,1-5.6-8.37V42.46a9.07,9.07,0,0,1,9.07-9.07h9.31a9.07,9.07,0,0,0,9.07-9.07V9.07A9.07,9.07,0,0,0,315.12,0h-216a9.07,9.07,0,0,0-9.07,9.07V24.32a9.07,9.07,0,0,0,9.07,9.07h9.31a9.07,9.07,0,0,1,9.07,9.07v172.8a9.06,9.06,0,0,1-5.6,8.37c-29.92,12.47-55.6,30.63-75,53.14C12.77,304.84,0,337.86,0,372.26c0,55,33.35,106.41,89.22,137.62l1.74,1A9.1,9.1,0,0,0,95.38,512h223.5a9.13,9.13,0,0,0,4.42-1.15l1.73-1c55.87-31.21,89.22-82.65,89.22-137.62C414.25,337.86,401.48,304.84,377.32,276.77Zm-265.13,2.74c-9.41,0-12.63-12.6-4.34-17.05A195.5,195.5,0,0,1,139.41,249l5.25-1.72a9.07,9.07,0,0,0,6.25-8.62V154A9.07,9.07,0,0,1,160,145h23.16a9.07,9.07,0,0,0,9.07-9.07V120.63a9.07,9.07,0,0,0-9.07-9.07H160a9.08,9.08,0,0,1-9.08-9.07V94A9.08,9.08,0,0,1,160,84.93h23.16a9.08,9.08,0,0,0,9.07-9.08V60.61a9.08,9.08,0,0,0-9.07-9.08H160a9.08,9.08,0,0,1-9.08-9.07h0A9.08,9.08,0,0,1,160,33.39h94.3a9.07,9.07,0,0,1,9.07,9.07V238.67a9.07,9.07,0,0,0,6.24,8.62l5.25,1.72a195.5,195.5,0,0,1,31.56,13.45c8.29,4.45,5.07,17.05-4.34,17.05Z"/></g></g></g></svg>