<svg xmlns="http://www.w3.org/2000/svg" viewBox="0 0 375.75 375.75"><defs><style>.cls-1,.cls-4{fill-opacity:0;}.cls-2{fill:#68fc7f;}.cls-3{opacity:0.4;}.cls-4,.cls-5{fill:#1d1d1b;}</style></defs><g id="Layer_2" data-name="Layer 2"><g id="Layer_1-2" data-name="Layer 1"><rect class="cls-1" width="375.75" height="375.75"/><path class="cls-2" d="M297.47,313.12H78.28a15.66,15.66,0,0,0,0,31.32H297.47a15.66,15.66,0,0,0,0-31.32Z"/><path class="cls-2" d="M78.28,281.81h1.41L145,275.86a31.28,31.28,0,0,0,18.94-8.92L304.83,126a30.07,30.07,0,0,0-1.1-42.43l-42.9-42.89a31.3,31.3,0,0,0-41.64-1.1L78.28,180.52a31.28,31.28,0,0,0-8.92,18.94l-6.74,65.29a15.63,15.63,0,0,0,15.66,17.06ZM239.07,62.62l42.74,42.75L250.5,135.9l-42-42Z"/><g class="cls-3"><rect class="cls-4" width="375.75" height="375.75"/><path class="cls-5" d="M297.47,313.12H78.28a15.66,15.66,0,0,0,0,31.32H297.47a15.66,15.66,0,0,0,0-31.32Z"/><path class="cls-5" d="M78.28,281.81h1.41L145,275.86a31.28,31.28,0,0,0,18.94-8.92L304.83,126a30.07,30.07,0,0,0-1.1-42.43l-42.9-42.89a31.3,31.3,0,0,0-41.64-1.1L78.28,180.52a31.28,31.28,0,0,0-8.92,18.94l-6.74,65.29a15.63,15.63,0,0,0,15.66,17.06ZM239.07,62.62l42.74,42.75L250.5,135.9l-42-42Z"/></g></g></g></svg>