<svg xmlns="http://www.w3.org/2000/svg" viewBox="0 0 286.58 296.58"><defs><style>.cls-1{fill:#68fc7f;}</style></defs><g id="Layer_2" data-name="Layer 2"><g id="Layer_1-2" data-name="Layer 1"><path class="cls-1" d="M282.18,243.39l-27.57-27.57A15,15,0,0,0,233.39,237l2,2H57.58V51.21l2,2A15,15,0,1,0,80.76,32L53.18,4.39A15,15,0,0,0,32,4.39L4.39,32A15,15,0,0,0,25.61,53.18l2-2V254a15,15,0,0,0,15,15H235.36l-2,2a15,15,0,1,0,21.22,21.21l27.57-27.57A15,15,0,0,0,282.18,243.39Z"/><path class="cls-1" d="M98.09,183.29a15,15,0,0,0,0,30h98a15,15,0,0,0,0-30Z"/><path class="cls-1" d="M98.09,88.29h76a15,15,0,0,0,0-30h-76a15,15,0,1,0,0,30Z"/><path class="cls-1" d="M83.09,135.79a15,15,0,0,0,15,15h165a15,15,0,1,0,0-30h-165A15,15,0,0,0,83.09,135.79Z"/></g></g></svg>