<svg xmlns="http://www.w3.org/2000/svg" viewBox="0 0 477.07 429.36"><defs><style>.cls-1{fill:#68fc7f;}.cls-2{opacity:0.4;}.cls-3{fill:#1d1d1b;}</style></defs><g id="Layer_2" data-name="Layer 2"><g id="Layer_1-2" data-name="Layer 1"><path class="cls-1" d="M454.69,73.73H321.05V38.27A38.32,38.32,0,0,0,282.77,0H194.29A38.32,38.32,0,0,0,156,38.27V73.73H22.37A22.37,22.37,0,0,0,0,96.1V385.77a22.38,22.38,0,0,0,22.37,22.37H34.12v2.67a18.56,18.56,0,0,0,37.11,0v-2.67h334.6v2.67a18.56,18.56,0,0,0,37.11,0v-2.67h11.75a22.38,22.38,0,0,0,22.38-22.37V96.1A22.37,22.37,0,0,0,454.69,73.73ZM187.82,38.27a6.47,6.47,0,0,1,6.47-6.46h88.48a6.47,6.47,0,0,1,6.47,6.46V73.73H187.82ZM356,274.38a24.9,24.9,0,0,1-17.52,7.28h-.54l.39.38a24.72,24.72,0,0,1,0,35l-22.63,22.64a24.75,24.75,0,0,1-35,0l-.39-.39v.55a24.77,24.77,0,0,1-24.74,24.73h-32a24.77,24.77,0,0,1-24.73-24.73v-.55l-.38.38A24.57,24.57,0,0,1,181,346.88a24.87,24.87,0,0,1-17.49-7.24L140.82,317a24.76,24.76,0,0,1,0-35l.37-.37h-.52A24.76,24.76,0,0,1,116,256.92v-32a24.76,24.76,0,0,1,24.73-24.74h.52l-.36-.36a24.58,24.58,0,0,1-7.25-17.49,24.88,24.88,0,0,1,7.25-17.49l22.64-22.65a24.75,24.75,0,0,1,35,0l.37.37v-.53a24.94,24.94,0,0,1,24.73-24.73h32a24.94,24.94,0,0,1,24.74,24.73v.51l.37-.37a24.75,24.75,0,0,1,35,0l22.63,22.63a24.59,24.59,0,0,1,7.25,17.49,24.88,24.88,0,0,1-7.25,17.49l-.38.37h.54a24.77,24.77,0,0,1,24.73,24.74v32A24.87,24.87,0,0,1,356,274.38Z"/><path class="cls-1" d="M338.44,216.08H320.3a83.79,83.79,0,0,0-6.12-14.66L327,188.56a8.8,8.8,0,0,0,0-12.49l-22.62-22.63a8.84,8.84,0,0,0-12.5,0L279.05,166.3a83.27,83.27,0,0,0-14.66-6.1V142.06a8.83,8.83,0,0,0-8.83-8.83h-32a8.83,8.83,0,0,0-8.83,8.83V160.2a84,84,0,0,0-14.67,6.1l-12.85-12.85a8.82,8.82,0,0,0-12.49,0l-22.63,22.62a8.85,8.85,0,0,0,0,12.51l12.85,12.84a84.07,84.07,0,0,0-6.11,14.66H140.69a8.83,8.83,0,0,0-8.83,8.84v32a8.83,8.83,0,0,0,8.83,8.84h18.14a84,84,0,0,0,6.1,14.67l-12.85,12.85a8.84,8.84,0,0,0,0,12.48l22.63,22.64a8.86,8.86,0,0,0,12.5,0l12.84-12.85a83,83,0,0,0,14.68,6.1v18.16a8.83,8.83,0,0,0,8.83,8.83h32a8.83,8.83,0,0,0,8.83-8.83V321.65a82.72,82.72,0,0,0,14.68-6.1l12.86,12.85a8.82,8.82,0,0,0,12.49,0L327,305.78a8.81,8.81,0,0,0,0-12.5l-12.85-12.85a83.69,83.69,0,0,0,6.1-14.67h18.15a8.86,8.86,0,0,0,8.84-8.84v-32A8.83,8.83,0,0,0,338.44,216.08Zm-98.88,81.67a56.83,56.83,0,1,1,56.83-56.83A56.9,56.9,0,0,1,239.56,297.75Z"/><path class="cls-1" d="M239.56,200a40.92,40.92,0,1,0,40.92,40.92A41,41,0,0,0,239.56,200Z"/><g class="cls-2"><path class="cls-3" d="M454.69,73.73H321.05V38.27A38.32,38.32,0,0,0,282.77,0H194.29A38.32,38.32,0,0,0,156,38.27V73.73H22.37A22.37,22.37,0,0,0,0,96.1V385.77a22.38,22.38,0,0,0,22.37,22.37H34.12v2.67a18.56,18.56,0,0,0,37.11,0v-2.67h334.6v2.67a18.56,18.56,0,0,0,37.11,0v-2.67h11.75a22.38,22.38,0,0,0,22.38-22.37V96.1A22.37,22.37,0,0,0,454.69,73.73ZM187.82,38.27a6.47,6.47,0,0,1,6.47-6.46h88.48a6.47,6.47,0,0,1,6.47,6.46V73.73H187.82ZM356,274.38a24.9,24.9,0,0,1-17.52,7.28h-.54l.39.38a24.72,24.72,0,0,1,0,35l-22.63,22.64a24.75,24.75,0,0,1-35,0l-.39-.39v.55a24.77,24.77,0,0,1-24.74,24.73h-32a24.77,24.77,0,0,1-24.73-24.73v-.55l-.38.38A24.57,24.57,0,0,1,181,346.88a24.87,24.87,0,0,1-17.49-7.24L140.82,317a24.76,24.76,0,0,1,0-35l.37-.37h-.52A24.76,24.76,0,0,1,116,256.92v-32a24.76,24.76,0,0,1,24.73-24.74h.52l-.36-.36a24.58,24.58,0,0,1-7.25-17.49,24.88,24.88,0,0,1,7.25-17.49l22.64-22.65a24.75,24.75,0,0,1,35,0l.37.37v-.53a24.94,24.94,0,0,1,24.73-24.73h32a24.94,24.94,0,0,1,24.74,24.73v.51l.37-.37a24.75,24.75,0,0,1,35,0l22.63,22.63a24.59,24.59,0,0,1,7.25,17.49,24.88,24.88,0,0,1-7.25,17.49l-.38.37h.54a24.77,24.77,0,0,1,24.73,24.74v32A24.87,24.87,0,0,1,356,274.38Z"/><path class="cls-3" d="M338.44,216.08H320.3a83.79,83.79,0,0,0-6.12-14.66L327,188.56a8.8,8.8,0,0,0,0-12.49l-22.62-22.63a8.84,8.84,0,0,0-12.5,0L279.05,166.3a83.27,83.27,0,0,0-14.66-6.1V142.06a8.83,8.83,0,0,0-8.83-8.83h-32a8.83,8.83,0,0,0-8.83,8.83V160.2a84,84,0,0,0-14.67,6.1l-12.85-12.85a8.82,8.82,0,0,0-12.49,0l-22.63,22.62a8.85,8.85,0,0,0,0,12.51l12.85,12.84a84.07,84.07,0,0,0-6.11,14.66H140.69a8.83,8.83,0,0,0-8.83,8.84v32a8.83,8.83,0,0,0,8.83,8.84h18.14a84,84,0,0,0,6.1,14.67l-12.85,12.85a8.84,8.84,0,0,0,0,12.48l22.63,22.64a8.86,8.86,0,0,0,12.5,0l12.84-12.85a83,83,0,0,0,14.68,6.1v18.16a8.83,8.83,0,0,0,8.83,8.83h32a8.83,8.83,0,0,0,8.83-8.83V321.65a82.72,82.72,0,0,0,14.68-6.1l12.86,12.85a8.82,8.82,0,0,0,12.49,0L327,305.78a8.81,8.81,0,0,0,0-12.5l-12.85-12.85a83.69,83.69,0,0,0,6.1-14.67h18.15a8.86,8.86,0,0,0,8.84-8.84v-32A8.83,8.83,0,0,0,338.44,216.08Zm-98.88,81.67a56.83,56.83,0,1,1,56.83-56.83A56.9,56.9,0,0,1,239.56,297.75Z"/><path class="cls-3" d="M239.56,200a40.92,40.92,0,1,0,40.92,40.92A41,41,0,0,0,239.56,200Z"/></g></g></g></svg>